# xmcd
#
# Track frame offsets:
#  150
#  20878
#  38047
#  60524
#  77190
#  101179
#  117964
#  123515
#  138397
#  156574
#  178872
#  198715
#
# Disc length: 3015 seconds
#
# Revision: 0
# Processed by: cddbd v1.5.1PL2 Copyright (c) Steve Scherf et al.
# Submitted via: Collectorz.com_Music_Collector 6.11
#
DISCID=b30bc50c
DTITLE=Guy Clark, Joe Ely, John Hiatt and Lyle Lovett - Theater Of Living Arts, Philadelphia - 25/10/1991 [CD2)
DYEAR=1991
DGENRE=Alt Country
TTITLE0=Guy Clark - Let Him Roll
TTITLE1=Joe Ely - Honky Tonk Masquerade
TTITLE2=John Hiatt - Icy Blue Heart
TTITLE3=Lyle Lovett - Nobody Knows Me
TTITLE4=Robert Earl Keen - Whenever Kindness Fails
TTITLE5=Guy Clark - Doctor Good Doctor
TTITLE6=Joe Ely - For Your Love (Changes His Mind and Plays)
TTITLE7=Joe Ely - I Keep Gettin' Paid The Same
TTITLE8=John Hiatt - Drive South
TTITLE9=Lyle Lovett - Church
TTITLE10=Robert Earl Keen - The Road Goes On Forever
TTITLE11=Guy Clark - Old Friends
EXTD=
EXTT0=
EXTT1=
EXTT2=
EXTT3=
EXTT4=
EXTT5=
EXTT6=
EXTT7=
EXTT8=
EXTT9=
EXTT10=
EXTT11=
PLAYORDER=
